<svg xmlns="http://www.w3.org/2000/svg" viewBox="0 0 512 512">
  <defs>
    <linearGradient id="g2" x1="0%" y1="0%" x2="100%" y2="100%">
      <stop offset="0%" stop-color="#8b5cf6"/>
      <stop offset="100%" stop-color="#7c3aed"/>
    </linearGradient>
    <linearGradient id="g1" x1="0%" y1="0%" x2="100%" y2="100%">
      <stop offset="0%" stop-color="#9b7ae0"/>
      <stop offset="100%" stop-color="#8868d1"/>
    </linearGradient>
    <linearGradient id="g0" x1="0%" y1="0%" x2="100%" y2="100%">
      <stop offset="0%" stop-color="#b9a3ec"/>
      <stop offset="100%" stop-color="#a78bfa"/>
    </linearGradient>
  </defs>
  <path fill="url(#g0)" d="M128 152 L176 166 L170 190 L146 184 L92 398 C 210 378, 340 428, 456 508 C 330 452, 200 428, 56 446 Z"/>
  <path fill="url(#g1)" d="M212 88 L262 102 L256 126 L230 120 L162 352 C 285 330, 400 385, 498 490 C 385 405, 265 378, 126 396 Z"/>
  <path fill="url(#g2)" d="M298 18 L352 34 L345 58 L318 52 L240 300 C 360 282, 445 335, 508 428 C 420 350, 320 322, 202 344 Z"/>
  <path fill="url(#g2)" d="M300 14 C 402 16, 474 66, 510 152 C 452 86, 386 48, 296 34 Z"/>
</svg>
